<?xml version="1.0" encoding="UTF-8"?>
<svg xmlns="http://www.w3.org/2000/svg" width="43" height="16" viewBox="0 0 43 16" fill="none">
  <path d="M11.1513 14.3328C10.9613 14.4468 10.6763 14.5861 10.2963 14.7508C9.91631 14.9028 9.47298 15.0358 8.96631 15.1498C8.47231 15.2765 7.93398 15.3398 7.35131 15.3398C6.59131 15.3398 5.81865 15.2195 5.03331 14.9788C4.26065 14.7381 3.54498 14.3645 2.88631 13.8578C2.24031 13.3511 1.72098 12.6861 1.32831 11.8628C0.935646 11.0395 0.739313 10.0515 0.739313 8.8988C0.739313 8.15147 0.821646 7.41047 0.986313 6.6758C1.16365 5.92847 1.43598 5.22547 1.80331 4.5668C2.17065 3.90814 2.63931 3.32547 3.20931 2.8188C3.77931 2.31214 4.45698 1.91314 5.24231 1.6218C6.02765 1.33047 6.93331 1.1848 7.95931 1.1848C8.93465 1.1848 9.79598 1.33047 10.5433 1.6218C11.2906 1.91314 11.8986 2.23614 12.3673 2.5908L11.2273 4.6048C10.9106 4.32614 10.4863 4.0538 9.95431 3.7878C9.43498 3.5218 8.83965 3.3698 8.16831 3.3318C7.35765 3.2938 6.62931 3.41414 5.98331 3.6928C5.34998 3.9588 4.81165 4.34514 4.36831 4.8518C3.93765 5.3458 3.60831 5.92847 3.38031 6.5998C3.15231 7.25847 3.03831 7.9678 3.03831 8.7278C3.03831 9.38647 3.13965 9.99447 3.34231 10.5518C3.55765 11.0965 3.85531 11.5651 4.23531 11.9578C4.62798 12.3505 5.09665 12.6545 5.64131 12.8698C6.18598 13.0851 6.78765 13.1928 7.44631 13.1928C7.95298 13.1928 8.39631 13.1421 8.77631 13.0408C9.15631 12.9268 9.48565 12.8001 9.76431 12.6608C10.0556 12.5215 10.2836 12.4011 10.4483 12.2998L11.1513 14.3328ZM19.5725 1.2608C20.3325 1.2608 21.0101 1.36214 21.6055 1.5648C22.2135 1.7548 22.7201 2.0398 23.1255 2.4198C23.5308 2.7998 23.8221 3.26847 23.9995 3.8258C24.1768 4.37047 24.2211 4.99747 24.1325 5.7068C24.0565 6.25147 23.9045 6.79614 23.6765 7.3408C23.4485 7.88547 23.1191 8.37947 22.6885 8.8228C22.2705 9.26614 21.7385 9.6208 21.0925 9.8868C20.4591 10.1528 19.6928 10.2858 18.7935 10.2858H16.7985L16.1905 15.0928H13.9865L15.6775 1.2608H19.5725ZM19.0215 8.1578C19.6928 8.1578 20.2248 8.0248 20.6175 7.7588C21.0228 7.4928 21.3205 7.17614 21.5105 6.8088C21.7005 6.44147 21.8081 6.09947 21.8335 5.7828C21.8715 5.5548 21.8651 5.3078 21.8145 5.0418C21.7765 4.76314 21.6815 4.50347 21.5295 4.2628C21.3775 4.00947 21.1495 3.80047 20.8455 3.6358C20.5541 3.47114 20.1678 3.3888 19.6865 3.3888H17.6345L17.0455 8.1578H19.0215ZM21.2445 9.4688L24.1135 15.0928H21.5295L18.6035 9.5258L21.2445 9.4688ZM28.8615 15.0928H26.7145L28.4815 0.766804H28.5005L34.6565 11.3118L33.7255 11.1028L42.4085 0.766804H42.4465L40.6795 15.0928H38.4755L39.6155 5.7638L39.6345 6.9038L33.7635 13.9718H33.7255L29.4885 6.9038L30.0015 5.8588L28.8615 15.0928Z" fill="white"></path>
</svg>
